<svg fill="#000000" xmlns:dc="http://purl.org/dc/elements/1.1/" xmlns:cc="http://creativecommons.org/ns#" xmlns:rdf="http://www.w3.org/1999/02/22-rdf-syntax-ns#" xmlns:svg="http://www.w3.org/2000/svg" xmlns="http://www.w3.org/2000/svg" xmlns:sodipodi="http://sodipodi.sourceforge.net/DTD/sodipodi-0.dtd" xmlns:inkscape="http://www.inkscape.org/namespaces/inkscape" viewBox="0 0 94.999988 82.276101" version="1.1" x="0px" y="0px"><g transform="translate(-277.97265,-231.70755)"><path style="color:#000000;font-style:normal;font-variant:normal;font-weight:normal;font-stretch:normal;font-size:medium;line-height:normal;font-family:sans-serif;text-indent:0;text-align:start;text-decoration:none;text-decoration-line:none;text-decoration-style:solid;text-decoration-color:#000000;letter-spacing:normal;word-spacing:normal;text-transform:none;direction:ltr;block-progression:tb;writing-mode:lr-tb;baseline-shift:baseline;text-anchor:start;white-space:normal;clip-rule:nonzero;display:inline;overflow:visible;visibility:visible;opacity:1;isolation:auto;mix-blend-mode:normal;color-interpolation:sRGB;color-interpolation-filters:linearRGB;solid-color:#000000;solid-opacity:1;fill:#000000;fill-opacity:1;fill-rule:nonzero;stroke:none;stroke-width:5;stroke-linecap:round;stroke-linejoin:round;stroke-miterlimit:4;stroke-dasharray:none;stroke-dashoffset:0;stroke-opacity:1;color-rendering:auto;image-rendering:auto;shape-rendering:auto;text-rendering:auto;enable-background:accumulate" d="m 354.64944,231.70809 a 0.96499204,0.96499204 0 0 0 -0.0769,0.004 c -18.3551,1.58636 -38.4345,0.72369 -59.01015,0.6302 a 0.96499204,0.96499204 0 0 0 -0.63698,0.23594 c -10.73504,9.30947 -16.93424,23.03264 -16.95276,37.49826 a 0.96499204,0.96499204 0 0 0 0,0.002 c 0.0119,16.93342 8.47995,32.67068 22.41799,41.62017 a 0.96499204,0.96499204 0 0 0 0.33017,0.13418 c 14.94748,3.02059 31.35891,2.47702 48.25986,0.70935 a 0.96499204,0.96499204 0 0 0 0.39726,-0.13268 c 14.59976,-8.78041 23.57521,-24.90033 23.59471,-42.33102 a 0.96499204,0.96499204 0 0 0 0,-0.002 c -0.0153,-14.81932 -6.51621,-28.84167 -17.6998,-38.14579 a 0.96499204,0.96499204 0 0 0 -0.62341,-0.22313 z m -0.34375,1.95617 c 7.53806,6.37384 12.83219,15.0022 15.25214,24.55735 -17.02,1.95503 -54.21703,2.34518 -88.33016,0.6596 2.26846,-9.50775 7.3737,-18.14216 14.71466,-24.60559 20.23228,0.10165 40.06615,0.93056 58.36336,-0.61136 z m 15.43532,25.31268 c 0.8501,3.59886 1.29795,7.32166 1.30185,11.10158 -0.0192,16.69709 -8.58566,32.11679 -22.48432,40.5633 -16.66472,1.73254 -32.75213,2.2341 -47.27461,-0.67015 -13.27954,-8.60214 -21.3693,-23.66489 -21.38148,-39.8924 l 0,-0.002 c 0.005,-3.54439 0.39923,-7.04047 1.15033,-10.43143 34.2472,1.69841 71.56687,1.31304 88.68823,-0.6694 z"></path></g></svg>